<svg xmlns="http://www.w3.org/2000/svg" xmlns:xlink="http://www.w3.org/1999/xlink" version="1.1" x="0px" y="0px" viewBox="0 0 100 100" enable-background="new 0 0 100 100" xml:space="preserve"><g><path d="M95.787,79.654c-2.663-4.705-12.19-13.357-19.053-17.658c-0.104-3.139-8.093-18.587-13.931-21.608   c0,0-11.54-16.572-15.845-17.038c-1.707-7.204-8.945-27.34-27.452-14.095c0,0-7.65-0.154-7.717,0.388   c-0.147,1.173,7.854,4.025,7.854,4.025s4.917,10.38,2.458,17.118c-2.303,6.313,2.323,23.157,25.339,30.977   c0,0-14.763,12.393-13.438,19.683c-2.827,4.346-4.748,7.753-4.049,8.042c1.209,0.502,1.714,6.564,1.71,6.197   c-0.022-2.286,2.079-6.816,4.891-11.848c0.974,0.994,3.767,1.791,4.942-2.559c0,0-1.504-0.387-1.912-1.471   c-0.084-0.222-0.205-0.418-0.339-0.597c2.528-4.198,5.242-8.374,7.406-11.617c0.927,0.296,3.234,0.553,3.861-0.563   c1.085-1.945,1.158-3.399,0.635-4.729c2.455-0.392,5.517,0.11,9.267,0.312c6.83,3.723,14.067,6.662,14.067,6.662   s9.783,8.982,12.038,8.982c2.254,0,3.98,2.367,4.711,2.846c0.975,0.643-0.922-2.088-0.308-2.088s3.997,2.033,3.997,2.033   l-1.69-2.383C93.229,78.666,96.096,80.197,95.787,79.654z"/></g></svg>