<svg xmlns="http://www.w3.org/2000/svg" xmlns:xlink="http://www.w3.org/1999/xlink" version="1.1" x="0px" y="0px" viewBox="0 0 123 123" enable-background="new 0 0 123 123" xml:space="preserve"><path fill-rule="evenodd" clip-rule="evenodd" d="M61.1,49.8c-1.2-9.6-5.6-30.3-10.4-29.1c-0.6,2.9-1.3,0.5-2,1.1c0-0.1,0.4-1,0.4-1  c5-14.1,10.6,15.1,12.9,28.6c0.2,0,0.4,0,0.6,0.1C64.7,35.8,69.8,7.1,75,21c0,0,0.4,0.9,0.4,1c-0.7-0.6-1.3,1.8-2-1.1  c-4.6-1.1-9.3,19.8-9.9,29.2c0.5,0.4,0.8,1.1,1,1.9c13.4-22.3,19.6-29.1,43.4-40.5c4.6-2.1,10.7-5,13.5-3.7c1.8,0.8,2.2,3,0.1,7.6  c-2.7,9.3-2.4,17.2-2.1,26.2c0.1,2.4,0.2,4.9,0.2,7.3l0,0.1c-5.5,17.5-13.8,16.5-28.8,14.7c-3.4-0.4-7.3-0.9-11.5-1.2  c3.6,0.5,6.9,0.9,9.9,1.3c24.3,2.9,34.2,17.9,22.5,37.5C91.1,135.8,77.5,97,69.5,78.6c-1.8-4.1-3.7-9.1-5.7-13.4  c0.7,10.8,2.3,22.5,1.3,33.4c-0.5,18.2-3,15.3-3.9-2c-1.3-10.5-0.2-21.1,0.1-31.6c-1.8,4.4-3.5,8.8-5.1,13  c-7.2,18.8-19.1,58.1-41.1,24.6C2.5,83.4,11.8,67.9,36,64c3-0.5,6.2-1,9.8-1.7c-4.2,0.5-8,1.1-11.4,1.7C19.5,66.5,11.2,67.8,5,50.6  l0-0.1c-0.1-2.4-0.1-4.9-0.1-7.3c-0.1-9-0.1-16.9-3.3-26.1c-2.2-4.6-1.9-6.8-0.2-7.6c2.7-1.3,8.9,1.2,13.6,3.2  C39.3,23,45.5,30.3,59.9,52C60.1,50.9,60.6,50.2,61.1,49.8z"/></svg>