<svg xmlns="http://www.w3.org/2000/svg" xmlns:xlink="http://www.w3.org/1999/xlink" version="1.1" x="0px" y="0px" viewBox="0 3 30 30" xml:space="preserve"><g transform="translate(-450 -200)"><path xmlns="http://www.w3.org/2000/svg" xmlns:xlink="http://www.w3.org/1999/xlink" d="M479.04,226.682c0,0-2.916-3.715-3.116-5.354c-0.199-1.637-0.28-3.316,0.04-3.516   c0.319-0.199,1.318-0.998,1.318-0.998l1.439,0.119l0.919-1.438c0,0-1.079-0.92-1.119-1.318c-0.04-0.4-1.398-1.119-1.398-1.119   l-0.279-1.598l-0.719,0.279c0,0-0.72,1.598-2.436,2.277c-0.999,1.119-2.157,1.318-2.157,1.318s-3.755-1.039-5.832-1.238   c-1.889-0.182-4.563-0.098-5.635,0.158c-0.009,0.002-0.018,0-0.025,0.002c-3.583,0.77-4.705-2.059-5.549-5.021   c-0.073-0.258-0.141-0.494-0.205-0.697c-0.64-2.023-2.737-2.217-3.758-2.035c-0.347,0.063-0.576,0.391-0.517,0.738   c0.06,0.346,0.389,0.58,0.738,0.521c0.189-0.033,1.865-0.271,2.316,1.16c0.062,0.193,0.125,0.418,0.195,0.662   c0.542,1.902,1.574,5.521,4.849,6.021c-0.595,0.623-1.166,1.426-1.479,2.324c-0.639,1.838-1.317,3.676-2.036,4.516   c-0.72,0.838-1.519,2.955-1.559,3.395c-0.04,0.439,0.24,2.158,0.24,2.158h1.917l-0.159-1.08l-0.439-0.279   c0,0,0.159-1.836,0.958-2.396c0.798-0.559,3.835-2.875,4.594-2.875c0.759,0,0.279,3.594,0.479,3.795   c0.2,0.199,1.998,2.836,1.998,2.836h2.037l-0.12-0.959l-0.519-0.32h-0.839c0,0-0.959-1.557-0.8-1.957   c0.16-0.398,1.479-2.596,1.759-3.355l3.755,0.559l-0.04,5.434l0.499,0.6h1.538l0.12-0.799l-0.679-0.539   c0,0,0.878-3.975,1.797-4.295c0.919-0.32,4.194,1.598,5.232,3.195c1.039,1.598,2.237,2.438,2.237,2.438h1.398v-1.039   L479.04,226.682z"/></g></svg>