<svg xmlns="http://www.w3.org/2000/svg" xmlns:xlink="http://www.w3.org/1999/xlink" version="1.1" x="0px" y="0px" viewBox="0 0 100 100" enable-background="new 0 0 100 100" xml:space="preserve"><path d="M98.836,33.688c-1.061-0.7-2.889-2.144-4.197-4.13c-1.309-1.986-1.715-2.256-1.851-4.017c0,0,2.979,0.158,4.378-2.415  c0,0-1.422-1.783-4.039-1.105c-2.618,0.677-2.956,1.038-3.159,0.722c-0.203-0.315-0.944-2.067-1.844-2.568  c-0.325-0.988-0.406-2.683,1.418-4.771c0,0-3.178,1.14-3.674,4.26c-0.384,0.013-0.783,0.07-1.192,0.179  c-0.584,0.155-1.198,0.454-1.874,0.853v0c0,0-3.361-1.45-1.974-6.561c0,0-3.843,3.935-0.753,8.348  c-0.557,0.373-1.152,0.766-1.797,1.168c-2.843,1.777-3.757,1.878-6.194,2.792c-2.437,0.914-7.057,2.539-9.088,2.386  c-2.03-0.152-5.585-0.437-9.494,0.01c-3.909,0.447-8.529,0.548-11.83,0.751s-10.256,0.254-12.642,0  c-2.386-0.253-4.519-0.406-6.803-0.304c-2.285,0.101-9.291-0.305-12.388,0.051c-3.097,0.355-8.123,2.488-8.123,10.357  s0.452,8.019,0.372,10.67c-0.162,5.313-1.854,6.769-2.082,10.409c-0.101,1.621,1.117,5.737,2.234,7.006c0,0-0.061-2.016,0.921-4.385  c0.982-2.37,0.644-7.752,0.542-12.355s-0.051-0.787-0.017-4.511c0.034-3.723,0.271-6.126,0.948-7.785c0,0,0.033,8.758,3.757,16.553  c0,0-0.88,3.994-1.219,5.179c-0.338,1.185-0.745,2.641-1.252,3.216c-0.507,0.575-1.591,3.554-0.745,6.126  c0,0-0.474,5.044-0.846,6.805c-0.372,1.76-0.981,3.113-0.88,3.452s0.237,1.658,0.338,1.692s0.373,0.406,0.508,0.237  s0.44-0.711,0.44-0.711l0.677,0.542c0,0,0.101,3.182,1.252,3.554c1.151,0.373,2.302,0.508,3.555,0.475  c1.252-0.035,2.031-0.542,2.031-0.712c0-0.169-1.76-2.538-2.37-2.911c-0.609-0.372-1.523-0.608-1.727-2.369  c-0.203-1.76-0.135-5.821,0.339-8.123c0.474-2.302,1.049-1.692,1.456-3.217c0.406-1.522,2.911-4.637,3.554-4.976  c1.095-0.939,3.746-3.177,4.765-4.647c1.018-1.471,2.308-3.848,2.942-5.273c0,0-0.86,3.757-1.901,5.703  c-0.895,1.675-2.927,4.148-4.242,5.528c0.197,0.168,0.357,0.305,0.434,0.375c0.422,0.384,1.075,1.477,1.188,2.112  c0.099,0.549-0.014,3.205,1.462,3.178c0.655,0,1.002-0.947,1.171-1.455c0.169-0.508,0.46-1.405,0.596-1.541  c0,0,0.297,0.096,1.109-0.107c0.813-0.203,1.39-0.059,1.527,0.326c0.256,0.718-0.009,2.875,1.371,2.753  c1.065-0.096,1.022-2.268,1.115-3.156c0.09-0.852,0.745-0.812,1.32-1.083s1.403-0.938,2.012-1.684  c0.609-0.744,1.936-2.101,3.053-2.032c1.117,0.067,2.724,0.327,4.214,0.666c1.489,0.338,5.856,0.372,8.699-0.475  c2.538-0.755,6.615-3.018,11.843-1.906c0-0.001,0-0.001,0-0.002c-0.012-5.021,2.331-8.489,2.331-8.489  c-1.12,6.8-0.16,13.749,0.11,14.629c0.271,0.88-0.135,1.693,0.068,2.843c0.203,1.151,0.439,2.201,0.474,3.453  c0.033,1.253-0.305,5.991-0.609,7.21s-0.474,2.572,0.067,2.606c0.542,0.033,0.745-0.745,1.117-0.508s0.677,1.963,1.76,2.606  c1.084,0.643,2.877,0.576,3.622,0.439c0.745-0.135,1.489-0.474,1.558-1.015c0.067-0.542-0.982-1.422-1.93-2.031  c-0.948-0.609-1.93-0.644-2.336-3.182c-0.406-2.539-0.305-4.096-0.271-5.077s0.102-1.659-0.045-2.268c0,0,0.722-0.406,1.061-2.956  c0.338-2.551,3.656-6.116,5.077-8.046c1.422-1.929,3.791-4.069,4.942-8.195c1.15-4.126,3.147-5.886,4.604-8.12  c1.455-2.234,4.265-6.736,5.009-6.939c0.745-0.203,1.659-0.271,2.438-0.068c0.779,0.203,3.419,0.068,4.536,0  c1.117-0.067,1.828,0.474,3.791,0.373c0,0,1.489,0.609,2.775,0.677c1.286,0.067,2.708-0.373,2.979-0.914  c0.271-0.542,0.609-2.031,0.677-2.505C100.055,34.883,99.896,34.387,98.836,33.688z"/></svg>