<svg xmlns="http://www.w3.org/2000/svg" xmlns:xlink="http://www.w3.org/1999/xlink" version="1.1" x="0px" y="0px" viewBox="0 0 100 100" enable-background="new 0 0 100 100" xml:space="preserve"><polygon stroke="#000000" stroke-width="1.0161" points="2.676,47.913 1.287,49.089 29.397,58.044 32.912,62.806 30.6,66.935   32.658,66.935 35.072,66.935 36.976,62.933 39.008,61.027 49.425,63.95 62.758,63.948 62.631,65.346 62.059,66.935 64.218,66.935   65.934,63.695 81.642,63.425 92.987,56.015 98.713,37.746 93.703,46.25 89.92,52.671 85.824,53.719 82.007,55.873 77.792,53.861   72.748,54.071 68.332,51.826 63.104,52.333 59.493,49.859 54.082,50.231 50.19,47.913 44.783,47.982 39.988,46.439 32.956,46.422   31.728,46.21 29.389,43.816 26.225,43.596 23.303,45.025 4.721,33.065 3.874,33.065 3.855,35.349 5.32,36.758 5.979,39.999   7.048,38.477 20.643,49.861 7.666,48.412 6.954,46.629 5.842,48.297 "/></svg>