<svg xmlns="http://www.w3.org/2000/svg" xmlns:xlink="http://www.w3.org/1999/xlink" version="1.1" x="0px" y="0px" viewBox="0 0 100 100" enable-background="new 0 0 100 100" xml:space="preserve"><path d="M96.7,24.4c-1-0.2-4.1-1.1-4.4-1.2c-0.3-0.2-0.9-0.4-1.1-1.5c-0.2-1.1-0.1-2.2-1.7-3.3c-1.7-1.2-2.4-1.1-2.9-1.5  c-1.4-0.5-3.4-0.7-5.4-0.3c-2.1,0.4-2.7,1.4-3.8,2c-1.1,0.6-2.7,2.9-3.6,3.8c-0.9,0.9-4.5,5.5-6.1,6.3c-1.5,0.8-4.7,2.2-6.2,2.3  c-1.5,0.2-3,0.3-4.2,1.1c-1.2,0.7-2.1,1.3-5.4,1.6c-3.3,0.3-11.3-0.1-12.8-0.3c-1.4-0.2-4.7-0.8-6.8-0.4c-2.2,0.5-3.1,0.9-3.9,0.6  c-0.8-0.3-2.9-0.6-4.3-0.5s-4.3,1.3-5.5,1.5c-1.2,0.2-3.9-0.2-5.5-1c-1.4-0.7-5.9-2.5-7.1-2.8c-1.2-0.2-2.3-0.4-2.9,0  c-0.5,0.3-0.9,1.8,0.5,3.2c1.4,1.3,4.8,4.5,6,5.3c1.2,0.8,3.8,2.3,6.1,2.3c2.4,0.1,4.2-0.4,4.9-0.6c0.7-0.2,1.4-0.5,1.3-0.3  s-1.2,4.9-2,6.6c-0.8,1.6-2.4,7.5-3,9.9c-0.6,2.4-1.5,6-2.7,6.9c-1.2,0.9-2.4,1.3-3.3,3.9C9.9,70.5,9.3,77.1,8.9,78  c-0.5,0.9-0.6,2.5-0.1,3c0.5,0.5,1.1,0.8,1.6,0.8c0.6,0.1,0.9,0.2,1.4,0.2c0.5,0,1.1,0.1,1.7-0.2c0.5-0.3,1-0.8,0.8-1.2  c-0.2-0.5-1.5-1-1.6-2.3c-0.2-1.3,0.7-5.3,1-5.9c0.3-0.6,1.4-2.8,2.2-3.6c0.8-0.8,1.4-2.1,2-2.4c0.6-0.3,5.5-4.5,5.5-4.5  s-3.8,6.9-3.5,9c0.3,2.1,1.2,4.6,1.4,5.2c0.3,0.7,0.5,2.3,1.9,2.5c1.4,0.2,3.5,0.2,4.2,0s1.2-1.7,0.6-2.2c-0.6-0.6-2.1-0.7-2.7-0.7  c-0.6-0.1-0.9-0.2-1.1-2.2c-0.2-1.9-0.5-3.7-0.1-4.4c0.4-0.7,1.8-3,2.5-3.4c0.7-0.4,4.4-3,6.4-5.2c2-2.2,3.4-4,3.6-4.2  c0.2-0.2,1.3-2.3,2.5-2.1c1.2,0.3,5.2,1.4,5.2,1.4c0.6,0.1,3.3,0.7,5,2c1.7,1.4,4.6,2.1,7.4,2.4c2.9,0.3,4.9,0.4,4.9,0.4  s1.8,1.6,2,3.5c0.2,1.9,0.6,3.6,0.6,4.6c0,0.8,0.2,2.8,0.3,3.3c0.1,0.5,0.2,4.1,0.3,4.6c0.1,0.4,0.2,2.4,0.4,3  c0.1,0.6,1,2.8,1.3,3.2c0.3,0.4,1.7,0.8,2.7,0.9c0.9,0.1,1.8-0.1,2.2-0.3c0.3-0.2,0.5-1,0.5-1.3c-0.1-0.3-0.5-0.6-0.5-0.6  s1.3,0.4,2.4,0.4c1,0,2-0.2,2.2-0.4c0.3-0.3,1-1.3,0-2.2c-0.9-0.8-1.8-0.9-2.6-0.8c-0.8,0.1-2.1-1.6-2.1-2.8c0-1.1,0.3-4.4,0.4-5.1  c0.1-0.7,0.7-5.2,1.5-8c0.8-2.8,0.2-2.8,1.8-4.5c1.5-1.7,5.4-6.7,5.6-9.6c0.2-2.8-0.1-5.2,1.1-7.5s2.9-6.5,3.1-6.8  c0.2-0.3,0.7-2.9,1-2.9s5.2,0.9,6.6,0.6c1.4-0.3,2.5-1.2,3-1.3c0.7-0.1,1.3-1.1,1.5-2.2c0.3-1.2,0.3-1.3,0.4-2.4  C97.5,25.4,97.7,24.5,96.7,24.4z"/></svg>