<svg xmlns="http://www.w3.org/2000/svg" xmlns:xlink="http://www.w3.org/1999/xlink" version="1.1" x="0px" y="0px" viewBox="0 0 100 100" enable-background="new 0 0 100 100" xml:space="preserve"><g><polygon points="89.531,93.287 89.895,91.312 90.664,89.19 91.564,88.043 92.117,86.794 91.782,83.221 91.042,78.79 91.274,75.826    91.652,74.142 91.564,72.718 90.664,70.917 89.24,68.999 87.338,65.571 87.12,62.898 86.757,59.645 87.497,56.303 88.95,53.354    90.112,50.943 91.448,47.951 92.189,45.162 92.189,41.82 92.756,46.701 92.872,49.49 92.872,53.006 92.756,55.199 91.608,57.204    91.245,58.758 91.245,60.08 91.245,62.187 91.245,64.685 91.245,67.91 92.393,69.261 92.669,70.03 93.54,69.537 93.889,70.307    93.889,68.883 93.889,68.593 94.106,67.619 94.311,66.762 94.586,65.629 95.08,65.629 95.646,65.135 96.301,64.481 96.388,62.753    96.794,58.831 96.678,56.26 96.01,51.945 95.646,47.166 95.255,44.028 93.889,39.525 92.001,36.373 89.531,34.47 86.669,32.102    82.355,30.751 80.06,29.4 75.28,29.487 68.584,30.068 61.611,31.23 56.469,31.594 48.713,31.899 45.619,31.986 41.77,31.986    40.404,31.26 39.91,30.795 40.113,29.894 40.404,29.429 39.039,29.081 38.98,28.209 38.124,27.86 37.935,26.771 37.818,26.059    36.947,26.03 36.569,24.825 35.552,24.825 35.552,23.793 34.027,23.604 34.027,23.198 33.605,22.66 33.402,21.919 32.574,21.759    32.574,21.629 32.327,20.815 31.746,20.132 31.601,19.333 30.235,19.188 29.088,18.752 29.364,17.765 28.855,16.878 27.621,16.878    27.679,15.789 27.766,15.179 26.967,14.903 26.255,14.932 25.877,14.758 26.11,13.668 25.602,13.189 25.093,13.015 24.483,13.392    23.771,13.668 23.8,10.981 23.335,7.712 23.045,5.969 22.769,4.43 21.854,3.631 21.345,3.485 20.764,3.66 20.212,4.372    20.009,5.548 19.82,8.003 19.602,9.238 19.602,10.298 19.544,10.908 19.457,10.981 18.789,10.69 16.987,7.93 16.625,6.405    16.334,4.43 16.188,3.573 15.767,3.485 15.114,3.805 14.663,4.72 14.3,5.374 14.242,6.972 14.228,9.15 14.242,10.574    14.373,12.042 14.576,13.494 15.302,14.729 15.477,15.295 14.228,15.586 13.007,16.239 11.38,17.968 10.015,20.162 9.042,22.079    8.867,23.372 8.359,24.316 6.848,26.437 4.03,29.473 3.435,30.548 3.391,30.998 2.49,31.768 1.72,32.611 1.561,33.802    1.589,34.703 1.895,35.24 2.374,35.646 2.723,36.039 3.042,36.707 3.87,37.245 4.727,37.564 6.528,37.869 7.778,37.593    9.158,37.012 10.189,36.417 11.903,36.068 13.85,35.443 14.809,34.833 15.244,34.645 16.464,34.775 17.656,34.775 18.614,35.065    19.108,35.56 19.762,36.954 20.822,39.525 21.941,41.225 23.365,43.912 25.398,46.164 26.749,47.689 27.708,49.258 28.71,52.148    29.538,54.895 30.482,56.521 31.804,57.93 32.763,58.7 33.199,60.24 33.577,62.419 34.797,64.133 35.436,65.876 36.046,69.086    36.191,71.323 36.743,75.478 37.179,78.761 37.673,82.756 37.586,84.586 37.499,86.314 37.005,87.506 35.828,88.74 35.029,90.339    33.896,91.529 33.17,92.256 33.17,93.142 34.797,93.374 40.694,93.389 43.803,93.2 44.181,92.053 44.181,91.413 43.542,90.367    43.121,89.699 43.121,89.104 43.44,88.392 44.064,87.941 44.559,87.288 44.834,86.314 44.442,85.501 43.193,84.586 42.67,81.478    43.149,78.354 43.948,76.858 44.355,74.984 44.355,73.227 43.338,68.97 44.036,66.82 44.442,64.99 44.442,63.436 44.442,60.763    45.372,60.356 47.58,61.242 51.56,62.84 55.714,62.941 60.159,62.39 65.446,60.56 70.226,59.484 71.78,59.005 73.232,57.93    73.64,58.278 73.9,59.324 75.063,59.412 76.399,58.816 77.213,59.208 78.288,61.067 80.292,65.077 81.353,66.675 82.718,69.29    83.285,73.546 83.197,78.122 82.355,82.465 81.803,85.152 81.063,87.622 80.524,89.017 80.264,89.395 80.002,89.481 79.479,89.932    78.694,90.817 77.939,92.053 77.809,92.459 77.721,93.389 79.639,93.52 82.297,93.389 83.575,93.389 86.437,93.287 88.325,93.258    89.531,93.287  "></polygon><polygon points="83.808,92.198 83.575,91.835 83.546,90.978 83.721,90.44 84.069,89.917 84.592,89.452 85.377,89.511    85.493,89.917 85.261,90.861 84.984,91.413 84.04,92.198 83.895,92.198 83.808,92.198  "></polygon></g></svg>