<svg xmlns="http://www.w3.org/2000/svg" xmlns:xlink="http://www.w3.org/1999/xlink" version="1.1" x="0px" y="0px" viewBox="0 0 100 100" enable-background="new 0 0 100 100" xml:space="preserve"><g><polygon fill="#000000" points="31.125,-2.507 31,-2.834 31.056,-3.016 31.287,-3.573 31.46,-3.688 32.687,-4.052 33.798,-4.311    35.419,-5.568 35.966,-5.693 37.185,-5.75 38.191,-5.655 39.035,-5.319 39.658,-4.733 39.927,-4.369 40.56,-4.1 41.136,-3.707    41.394,-3.313 41.403,-2.766 41.144,-2.489 40.819,-2.373 40.445,-2.316 40.234,-1.922 39.994,-1.635 39.736,-1.491 39.417,-1.461    39.101,-1.51 38.852,-1.692 38.642,-1.952 38.526,-2.191 33.962,-2.163 33.847,-1.913 33.666,-1.644 33.396,-1.5 33.089,-1.443    32.658,-1.519 32.379,-1.75 32.217,-2.029 32.15,-2.191 31.478,-2.373 31.115,-2.527 31.019,-2.718 31.125,-2.507  "></polygon></g><g><polygon fill="#000000" points="-16.687,-2.32 -16.683,-2.403 -16.671,-2.483 -16.653,-2.564 -16.627,-2.642 -16.593,-2.716    -16.554,-2.788 -16.507,-2.856 -16.455,-2.919 -16.397,-2.977 -16.333,-3.031 -16.266,-3.076 -16.193,-3.117 -16.118,-3.149    -16.041,-3.176 -15.961,-3.195 -15.879,-3.206 -15.797,-3.21 -15.715,-3.206 -15.634,-3.195 -15.555,-3.176 -15.476,-3.149    -15.401,-3.117 -15.33,-3.076 -15.262,-3.031 -15.198,-2.977 -15.141,-2.919 -15.089,-2.856 -15.042,-2.788 -15.002,-2.716    -14.969,-2.642 -14.943,-2.564 -14.924,-2.483 -14.912,-2.403 -14.909,-2.32 -14.912,-2.238 -14.924,-2.157 -14.943,-2.077    -14.969,-1.999 -15.002,-1.924 -15.042,-1.853 -15.089,-1.784 -15.141,-1.721 -15.198,-1.663 -15.262,-1.61 -15.33,-1.563    -15.401,-1.524 -15.476,-1.49 -15.555,-1.464 -15.634,-1.446 -15.715,-1.435 -15.797,-1.43 -15.879,-1.435 -15.961,-1.446    -16.041,-1.464 -16.118,-1.49 -16.193,-1.524 -16.266,-1.563 -16.333,-1.61 -16.397,-1.663 -16.455,-1.721 -16.507,-1.784    -16.554,-1.853 -16.593,-1.924 -16.627,-1.999 -16.653,-2.077 -16.671,-2.157 -16.683,-2.238 -16.687,-2.32  "></polygon><polygon fill="#000000" points="-9.544,-2.32 -9.54,-2.403 -9.529,-2.483 -9.509,-2.564 -9.483,-2.642 -9.451,-2.716 -9.41,-2.788    -9.364,-2.856 -9.311,-2.919 -9.253,-2.977 -9.191,-3.031 -9.122,-3.076 -9.05,-3.117 -8.976,-3.149 -8.898,-3.176 -8.817,-3.195    -8.737,-3.206 -8.655,-3.21 -8.572,-3.206 -8.492,-3.195 -8.411,-3.176 -8.333,-3.149 -8.258,-3.117 -8.188,-3.076 -8.119,-3.031    -8.056,-2.977 -7.999,-2.919 -7.945,-2.856 -7.899,-2.788 -7.859,-2.716 -7.826,-2.642 -7.8,-2.564 -7.78,-2.483 -7.77,-2.403    -7.766,-2.32 -7.77,-2.238 -7.78,-2.157 -7.8,-2.077 -7.826,-1.999 -7.859,-1.924 -7.899,-1.853 -7.945,-1.784 -7.999,-1.721    -8.056,-1.663 -8.119,-1.61 -8.188,-1.563 -8.258,-1.524 -8.333,-1.49 -8.411,-1.464 -8.492,-1.446 -8.572,-1.435 -8.655,-1.43    -8.737,-1.435 -8.817,-1.446 -8.898,-1.464 -8.976,-1.49 -9.05,-1.524 -9.122,-1.563 -9.191,-1.61 -9.253,-1.663 -9.311,-1.721    -9.364,-1.784 -9.41,-1.853 -9.451,-1.924 -9.483,-1.999 -9.509,-2.077 -9.529,-2.157 -9.54,-2.238 -9.544,-2.32  "></polygon><polyline fill="#000000" points="-18.455,-2.468 -18.521,-2.486 -18.554,-2.54 -18.56,-2.621 -18.566,-2.688 -18.569,-2.781    -18.564,-2.861 -18.561,-2.948 -18.54,-3.106 -18.499,-3.193 -18.434,-3.216 -18.33,-3.23 -18.375,-3.545 -18.452,-3.559    -18.482,-3.614 -18.5,-3.744 -18.519,-3.932 -18.5,-4.013 -18.438,-4.117 -18.371,-4.117 -18.38,-4.309 -18.343,-4.421    -18.281,-4.908 -18.253,-4.97 -18.241,-5.049 -18.171,-5.142 -18.086,-5.19 -17.323,-6.422 -17.326,-6.472 -17.303,-6.554    -17.215,-6.649 -16.939,-6.765 -16.636,-6.823 -15.901,-6.88 -14.359,-6.986 -11.798,-7.054 -9.118,-7.019 -8.356,-6.997    -7.524,-6.928 -6.941,-6.79 -6.789,-6.692 -6.656,-6.692 -6.639,-6.669 -6.68,-6.614 -6.537,-6.33 -6.395,-5.912 -6.308,-5.39    -6.247,-5.297 -6.233,-5.202 -6.247,-5.12 -6.21,-4.729 -6.165,-4.141 -6.13,-4.106 -6.07,-4.071 -6.076,-3.219 -6.136,-3.166    -6.025,-3.061 -5.942,-3.032 -5.891,-2.956 -5.891,-2.85 -5.907,-2.669 -5.932,-2.593 -6.34,-2.577 -6.532,-2.599 -6.579,-2.659    -7.595,-2.66 -7.623,-2.856 -7.701,-3.053 -7.77,-3.145 -7.854,-3.35 -7.93,-3.473 -8.045,-3.582 -8.234,-3.646 -9.083,-3.66    -9.316,-3.583 -9.458,-3.494 -9.571,-3.309 -9.684,-2.928 -9.751,-2.618 -14.65,-2.528 -14.735,-2.642 -14.813,-2.84    -14.882,-2.93 -14.965,-3.135 -15.04,-3.258 -15.157,-3.367 -15.345,-3.433 -16.193,-3.445 -16.426,-3.369 -16.571,-3.279    -16.682,-3.096 -16.794,-2.713 -16.861,-2.404 -17.083,-2.39 -17.786,-2.373 -18.023,-2.39 -18.145,-2.425 -18.455,-2.468    -18.401,-2.462 -18.147,-2.425 -18.145,-2.425  "></polyline></g><g><polygon points="89.531,93.287 89.895,91.312 90.664,89.19 91.564,88.043 92.117,86.794 91.782,83.221 91.042,78.79 91.274,75.826    91.652,74.142 91.564,72.718 90.664,70.917 89.24,68.999 87.338,65.571 87.12,62.898 86.757,59.645 87.497,56.303 88.95,53.354    90.112,50.943 91.448,47.951 92.189,45.162 92.189,41.82 92.756,46.701 92.872,49.49 92.872,53.006 92.756,55.199 91.608,57.204    91.245,58.758 91.245,60.08 91.245,62.187 91.245,64.685 91.245,67.91 92.393,69.261 92.669,70.03 93.54,69.537 93.889,70.307    93.889,68.883 93.889,68.593 94.106,67.619 94.311,66.762 94.586,65.629 95.08,65.629 95.646,65.135 96.301,64.481 96.388,62.753    96.794,58.831 96.678,56.26 96.01,51.945 95.646,47.166 95.255,44.028 93.889,39.525 92.001,36.373 89.531,34.47 86.669,32.102    82.355,30.751 80.06,29.4 75.28,29.487 68.584,30.068 61.611,31.23 56.469,31.594 48.713,31.899 45.619,31.986 41.77,31.986    40.404,31.26 39.91,30.795 40.113,29.894 40.404,29.429 39.039,29.081 38.98,28.209 38.124,27.86 37.935,26.771 37.818,26.059    36.947,26.03 36.569,24.825 35.552,24.825 35.552,23.793 34.027,23.604 34.027,23.198 33.605,22.66 33.402,21.919 32.574,21.759    32.574,21.629 32.327,20.815 31.746,20.132 31.601,19.333 30.235,19.188 29.088,18.752 29.364,17.765 28.855,16.878 27.621,16.878    27.679,15.789 27.766,15.179 26.967,14.903 26.255,14.932 25.877,14.758 26.11,13.668 25.602,13.189 25.093,13.015 24.483,13.392    23.771,13.668 23.8,10.981 23.335,7.712 23.045,5.969 22.769,4.43 21.854,3.631 21.345,3.485 20.764,3.66 20.212,4.372    20.009,5.548 19.82,8.003 19.602,9.238 19.602,10.298 19.544,10.908 19.457,10.981 18.789,10.69 16.987,7.93 16.625,6.405    16.334,4.43 16.188,3.573 15.767,3.485 15.114,3.805 14.663,4.72 14.3,5.374 14.242,6.972 14.228,9.15 14.242,10.574    14.373,12.042 14.576,13.494 15.302,14.729 15.477,15.295 14.228,15.586 13.007,16.239 11.38,17.968 10.015,20.162 9.042,22.079    8.867,23.372 8.359,24.316 6.848,26.437 4.03,29.473 3.435,30.548 3.391,30.998 2.49,31.768 1.72,32.611 1.561,33.802    1.589,34.703 1.895,35.24 2.374,35.646 2.723,36.039 3.042,36.707 3.87,37.245 4.727,37.564 6.528,37.869 7.778,37.593    9.158,37.012 10.189,36.417 11.903,36.068 13.85,35.443 14.809,34.833 15.244,34.645 16.464,34.775 17.656,34.775 18.614,35.065    19.108,35.56 19.762,36.954 20.822,39.525 21.941,41.225 23.365,43.912 25.398,46.164 26.749,47.689 27.708,49.258 28.71,52.148    29.538,54.895 30.482,56.521 31.804,57.93 32.763,58.7 33.199,60.24 33.577,62.419 34.797,64.133 35.436,65.876 36.046,69.086    36.191,71.323 36.743,75.478 37.179,78.761 37.673,82.756 37.586,84.586 37.499,86.314 37.005,87.506 35.828,88.74 35.029,90.339    33.896,91.529 33.17,92.256 33.17,93.142 34.797,93.374 40.694,93.389 43.803,93.2 44.181,92.053 44.181,91.413 43.542,90.367    43.121,89.699 43.121,89.104 43.44,88.392 44.064,87.941 44.559,87.288 44.834,86.314 44.442,85.501 43.193,84.586 42.67,81.478    43.149,78.354 43.948,76.858 44.355,74.984 44.355,73.227 43.338,68.97 44.036,66.82 44.442,64.99 44.442,63.436 44.442,60.763    45.372,60.356 47.58,61.242 51.56,62.84 55.714,62.941 60.159,62.39 65.446,60.56 70.226,59.484 71.78,59.005 73.232,57.93    73.64,58.278 73.9,59.324 75.063,59.412 76.399,58.816 77.213,59.208 78.288,61.067 80.292,65.077 81.353,66.675 82.718,69.29    83.285,73.546 83.197,78.122 82.355,82.465 81.803,85.152 81.063,87.622 80.524,89.017 80.264,89.395 80.002,89.481 79.479,89.932    78.694,90.817 77.939,92.053 77.809,92.459 77.721,93.389 79.639,93.52 82.297,93.389 83.575,93.389 86.437,93.287 88.325,93.258    89.531,93.287  "></polygon><polygon points="83.808,92.198 83.575,91.835 83.546,90.978 83.721,90.44 84.069,89.917 84.592,89.452 85.377,89.511    85.493,89.917 85.261,90.861 84.984,91.413 84.04,92.198 83.895,92.198 83.808,92.198  "></polygon></g><g><polygon fill="#000000" points="16.861,-6.859 12.831,-6.859 12.799,-6.75 11.023,-6.671 10.901,-6.625 9.486,-5.167 7.091,-4.929    5.521,-4.712 5.463,-4.666 5.341,-4.374 5.32,-4.035 5.331,-3.749 5.371,-3.612 5.282,-3.68 5.191,-3.743 5.039,-3.753    5.007,-3.738 4.997,-3.224 5.054,-3.23 5.087,-3.182 5.023,-3.167 4.943,-2.914 4.943,-2.648 5.034,-2.526 5.145,-2.479    5.393,-2.473 5.636,-2.617 5.679,-2.739 5.705,-2.891 5.805,-3.024 5.827,-3.204 5.794,-3.273 5.864,-3.51 6.022,-3.838    6.124,-3.951 6.271,-3.987 6.684,-4.008 7.435,-4.035 7.778,-4.013 7.889,-3.933 8.174,-3.552 8.385,-3.146 8.446,-3 8.499,-2.875    8.521,-2.731 8.594,-2.642 8.721,-2.462 8.822,-2.429 13.016,-2.484 13.075,-2.612 13.163,-2.918 13.302,-3.412 13.469,-3.799    13.592,-3.924 13.7,-3.958 14.707,-3.979 15.272,-3.964 15.391,-3.915 15.525,-3.784 15.734,-3.401 15.927,-3.018 16.035,-2.747    16.079,-2.619 16.002,-2.591 16.015,-2.455 16.142,-2.384 16.306,-2.443 17.461,-2.424 17.516,-2.515 17.554,-2.697 17.574,-2.713    17.583,-2.499 17.775,-2.525 17.889,-2.588 17.998,-2.69 18.027,-2.773 18,-3.219 17.957,-3.287 17.818,-3.287 17.688,-3.284    17.647,-3.292 17.701,-3.432 17.72,-3.635 17.756,-3.777 17.777,-3.969 17.718,-4.348 17.657,-4.505 17.593,-4.639 17.532,-4.707    17.523,-4.89 17.431,-5.25 16.861,-6.859  "></polygon><polygon fill="#000000" points="13.203,-2.082 13.205,-2.139 13.209,-2.197 13.216,-2.254 13.225,-2.313 13.236,-2.369    13.25,-2.425 13.267,-2.48 13.286,-2.535 13.308,-2.589 13.331,-2.64 13.358,-2.692 13.386,-2.744 13.417,-2.792 13.45,-2.838    13.484,-2.886 13.521,-2.929 13.561,-2.973 13.601,-3.013 13.645,-3.053 13.688,-3.09 13.734,-3.125 13.782,-3.158 13.831,-3.189    13.881,-3.217 13.932,-3.244 13.985,-3.267 14.04,-3.289 14.095,-3.307 14.149,-3.325 14.205,-3.338 14.262,-3.351 14.319,-3.359    14.377,-3.366 14.435,-3.37 14.492,-3.372 14.55,-3.37 14.608,-3.366 14.664,-3.359 14.722,-3.351 14.778,-3.338 14.834,-3.325    14.891,-3.307 14.945,-3.289 14.998,-3.267 15.051,-3.244 15.103,-3.217 15.153,-3.189 15.201,-3.158 15.25,-3.125 15.294,-3.09    15.34,-3.053 15.382,-3.013 15.423,-2.973 15.462,-2.929 15.5,-2.886 15.534,-2.838 15.566,-2.792 15.597,-2.744 15.626,-2.692    15.652,-2.64 15.675,-2.589 15.697,-2.535 15.716,-2.48 15.734,-2.425 15.748,-2.369 15.759,-2.313 15.767,-2.254 15.775,-2.197    15.779,-2.139 15.781,-2.082 15.779,-2.024 15.775,-1.966 15.767,-1.908 15.759,-1.852 15.748,-1.794 15.734,-1.738 15.716,-1.683    15.697,-1.628 15.675,-1.576 15.652,-1.522 15.626,-1.471 15.597,-1.42 15.566,-1.371 15.534,-1.324 15.5,-1.277 15.462,-1.233    15.423,-1.191 15.382,-1.149 15.34,-1.11 15.294,-1.074 15.25,-1.039 15.201,-1.005 15.153,-0.974 15.103,-0.946 15.051,-0.919    14.998,-0.896 14.945,-0.875 14.891,-0.856 14.834,-0.838 14.778,-0.824 14.722,-0.813 14.664,-0.804 14.608,-0.797 14.55,-0.792    14.492,-0.792 14.435,-0.792 14.377,-0.797 14.319,-0.804 14.262,-0.813 14.205,-0.824 14.149,-0.838 14.095,-0.856 14.04,-0.875    13.985,-0.896 13.932,-0.919 13.881,-0.946 13.831,-0.974 13.782,-1.005 13.734,-1.039 13.688,-1.074 13.645,-1.11 13.601,-1.149    13.561,-1.191 13.521,-1.233 13.484,-1.277 13.45,-1.324 13.417,-1.371 13.386,-1.42 13.358,-1.471 13.331,-1.522 13.308,-1.576    13.286,-1.628 13.267,-1.683 13.25,-1.738 13.236,-1.794 13.225,-1.852 13.216,-1.908 13.209,-1.966 13.205,-2.024 13.203,-2.082     "></polygon><polygon fill="#000000" points="5.889,-2.21 5.89,-2.266 5.894,-2.32 5.9,-2.375 5.908,-2.429 5.918,-2.483 5.931,-2.536    5.947,-2.589 5.964,-2.64 5.983,-2.692 6.005,-2.742 6.028,-2.792 6.053,-2.84 6.081,-2.887 6.111,-2.932 6.142,-2.978    6.176,-3.022 6.21,-3.064 6.248,-3.103 6.287,-3.142 6.326,-3.179 6.368,-3.213 6.412,-3.248 6.458,-3.279 6.502,-3.309    6.549,-3.337 6.598,-3.362 6.648,-3.385 6.698,-3.408 6.749,-3.427 6.8,-3.443 6.854,-3.458 6.907,-3.471 6.96,-3.482    7.014,-3.491 7.069,-3.497 7.124,-3.5 7.179,-3.501 7.233,-3.5 7.288,-3.497 7.342,-3.491 7.395,-3.482 7.45,-3.471 7.503,-3.458    7.555,-3.443 7.608,-3.427 7.657,-3.408 7.709,-3.385 7.757,-3.362 7.806,-3.337 7.853,-3.309 7.899,-3.279 7.943,-3.248    7.987,-3.213 8.029,-3.179 8.069,-3.142 8.108,-3.103 8.144,-3.064 8.181,-3.022 8.213,-2.978 8.246,-2.932 8.276,-2.887    8.302,-2.84 8.329,-2.792 8.352,-2.742 8.374,-2.692 8.393,-2.64 8.41,-2.589 8.424,-2.536 8.438,-2.483 8.447,-2.429    8.455,-2.375 8.461,-2.32 8.464,-2.266 8.466,-2.21 8.464,-2.157 8.461,-2.102 8.455,-2.047 8.447,-1.993 8.438,-1.939    8.424,-1.886 8.41,-1.833 8.393,-1.782 8.374,-1.73 8.352,-1.68 8.329,-1.63 8.302,-1.582 8.276,-1.535 8.246,-1.49 8.213,-1.444    8.181,-1.401 8.144,-1.36 8.108,-1.32 8.069,-1.281 8.029,-1.243 7.987,-1.208 7.943,-1.174 7.899,-1.143 7.853,-1.113    7.806,-1.084 7.757,-1.06 7.709,-1.037 7.657,-1.015 7.608,-0.996 7.555,-0.979 7.503,-0.963 7.45,-0.951 7.395,-0.94    7.342,-0.932 7.288,-0.926 7.233,-0.922 7.179,-0.921 7.124,-0.922 7.069,-0.926 7.014,-0.932 6.96,-0.94 6.907,-0.951    6.854,-0.963 6.8,-0.979 6.749,-0.996 6.698,-1.015 6.648,-1.037 6.598,-1.06 6.549,-1.084 6.502,-1.113 6.458,-1.143    6.412,-1.174 6.368,-1.208 6.326,-1.243 6.287,-1.281 6.248,-1.32 6.21,-1.36 6.176,-1.401 6.142,-1.444 6.111,-1.49 6.081,-1.535    6.053,-1.582 6.028,-1.63 6.005,-1.68 5.983,-1.73 5.964,-1.782 5.947,-1.833 5.931,-1.886 5.918,-1.939 5.908,-1.993 5.9,-2.047    5.894,-2.102 5.89,-2.157 5.889,-2.21  "></polygon></g></svg>