<svg xmlns="http://www.w3.org/2000/svg" xmlns:xlink="http://www.w3.org/1999/xlink" version="1.1" x="0px" y="0px" viewBox="0 0 95 95" enable-background="new 0 0 95 95" xml:space="preserve"><path d="M94.657,45.562c0,0-1.777,3.792-6.443,3.792c-8.026,0-10.589-5.917-10.589-5.917l-1.304,0.065c0,0,2.598,7.817,10.254,7.817  c3.959,0,5.896-1.227,5.896-1.227s-2.049,3.119-6.877,3.11C77,53.188,74.062,43.5,74.062,43.5s-0.875,0.062-2.125-0.562  c-0.978-0.489-1.312-1.5-1.312-1.5l-1.002,1.269c0,0,0.695,0.608,1.564,2.418C71.938,46.688,72,48,72,48  c-0.795-0.108-1.312-0.188-2.125-1.185c-0.626-0.769-0.902-0.708-3.441-0.708c-2.537,0-7.496,0.706-7.496,0.706  s0.625,1.938,1.438,4.062c0.555,1.451,2.217,4.392,2.708,6.03c0.49,1.637,0.976,2.93,1.548,4.813s1.803,5.404,1.803,5.404  s1.474,0.737,2.045,1.391c0.577,0.656,0.165,1.721-3.191,2.295c-3.876,0.66-5.093-0.806-5.093-0.806s-0.083-2.372-0.819-4.503  c-0.737-2.129-3.188-5.688-3.188-5.688s-1.679-3.855-2.5-5c-0.816-1.147-1.625-1.438-1.625-1.438s-0.75,1.188-1.76,4.414  c-0.604,1.932-0.98,3.686-0.98,3.686s-1.888,4.501-2.376,5.648c-0.491,1.146-0.709,1.908-0.709,1.908s0.465,0.263,0.996,0.998  c0.428,0.593,0.531,1.406,0.531,1.406s-0.574,1.091-4.504,1.091c-3.93,0-4.889-1.545-4.889-1.545s0.511-1.683,1.129-2.919  c0.375-0.75,2.105-4.612,2.533-6.181c0.737-2.704,1.52-4.83,1.467-6.257c-0.043-1.156-0.438-1.375-0.438-1.375l-7.417,0.017  l-5.814-1.638c0,0-2.7,4.342-2.7,8.189c0,3.849,0.898,6.599,1.556,7.695c0.245,0.409,0.726,0.811,1.475,1.474  c0.735,0.657,0.792,1.448,0.792,1.448s-0.874,1.091-4.639,1.091c-5.051,0-5.161-1.392-5.161-1.392l0.572-2.375  c0,0-0.714-1.61-0.816-3c-0.346-4.697,1.779-14.26,1.779-14.26l-0.518-0.109c0,0-4.029,6.457-6.725,8.894  c-1.702,1.537-4.208,4.126-4.398,5.038c-0.189,0.915-0.088,2.549-0.22,3.133c-0.127,0.582-0.52,0.852-0.52,0.852  s-1.714,0.57-4.688-1.544c-2.075-1.475-2.29-2.538-1.856-3.47c0.436-0.929,1.061-1.46,1.827-2.327  c0.768-0.867,0.84-2.347,0.84-2.347l5.766-4.496c0,0,2-2.683,2-5.304c0-3.413-0.737-5.458-0.737-5.458s-1.556-3.029-1.556-4.668  c0-2.264,1.31-4.611,1.31-4.611s-3.363,2.626-6.034,2.626c-5.124,0-6.092-4.619-6.092-4.619s-0.578-1.5-0.729-2.103  c-0.151-0.605,1.035-2.513,1.035-2.513l1.113,2.486l-0.316,2.103c0,0,0.617,2.953,4.688,2.953c4.206,0,12.397-10.241,14.445-11.386  c2.045-1.148,5.32-2.128,9.088-2.047c3.766,0.081,16.701,0.654,16.701,0.654s3.767,1.554,7.533,1.638  c3.767,0.082,5.733-2.701,9.417-2.373c3.685,0.326,4.095,3.683,4.095,3.683s2.088,1.925,2.742,2.457  c0.656,0.531,1.925,0.328,2.743,1.309c0.819,0.983,2.677,7.125,7.901,7.125c3.18,0,4.96-2.701,4.96-5.073  c0-3.508-2.178-5.25-5.125-5.25c-2.293,0-3.64,0.226-4.5,0.062c-0.725-0.141-1.953-0.806-2.241-1.338  c-0.285-0.534,1.23,0.102,1.23-0.534c0-0.777-0.739-1.761,0.327-1.761c0.531,0,0.816,1.27,2.332,1.27  c1.146,0,2.129-0.328,4.299-0.328c3.398,0,7.63,3.314,7.63,8.637c0,4.914-2.047,7.507-5.843,9.431  c-2.599,1.315-5.047,0.998-5.047,0.998s3.139,4.052,9.265,4.052C92.307,47.24,94.657,45.562,94.657,45.562z"/></svg>