<svg xmlns:x="http://ns.adobe.com/Extensibility/1.0/" xmlns:i="http://ns.adobe.com/AdobeIllustrator/10.0/" xmlns:graph="http://ns.adobe.com/Graphs/1.0/" xmlns="http://www.w3.org/2000/svg" xmlns:xlink="http://www.w3.org/1999/xlink" version="1.1" x="0px" y="0px" viewBox="0 0 2834 2834" enable-background="new 0 0 2834.65 2834.65" xml:space="preserve"><metadata><sfw xmlns="http://ns.adobe.com/SaveForWeb/1.0/"><slices/><sliceSourceBounds height="2834.65" width="2834.65" x="-0.65" y="-2834.65" bottomLeftOrigin="true"/></sfw></metadata><rect x="-0.65" fill="none" width="2834.65" height="2834.65"/><path d="M2554.29,1964.82c-4.063,0-7.977,0.633-11.656,1.79l-168.167-25.595l144.038-75.624c0.633,0.033,1.266,0.059,1.898,0.059  c18.717,0,33.887-15.179,33.887-33.887c0-18.717-15.17-33.896-33.887-33.896c-14.42,0-26.709,9.001-31.605,21.682l-141.707,70.845  l70.388-144.122c12.938-4.779,22.146-17.21,22.146-31.788c0-18.717-15.169-33.896-33.886-33.896s-33.887,15.179-33.887,33.896  c0,3.03,0.399,5.978,1.148,8.775l-65.009,143.689l-254.091,152.456l148.551-297.104c156.361-301.023-390.937-39.098-390.937-39.098  c93.834-179.824-7.81-527.757-7.81-527.757c281.467,89.912,304.93-164.188,304.93-164.188l42.995-138.702l138.577-46.842  c2.897,0.808,5.961,1.241,9.108,1.241c18.717,0,33.887-15.17,33.887-33.887s-15.17-33.886-33.887-33.886  c-14.554,0-26.976,9.192-31.755,22.08l-123.757,50.164l47.541-125.131c10.008-5.886,16.735-16.769,16.735-29.224  c0-18.717-15.17-33.887-33.887-33.887s-33.887,15.17-33.887,33.887c0,5.828,1.465,11.307,4.063,16.103l-55.283,122.616  l-32.805-116.422c2.864-4.979,4.529-10.757,4.529-16.918c0-18.717-15.187-33.895-33.903-33.895s-33.87,15.178-33.87,33.895  c0,12.322,6.578,23.113,16.419,29.041l40.53,135.572l-46.908,160.283c-54.734,121.192-199.373,23.454-199.373,23.454  l-46.925-129.002c-7.81-89.912-89.903-125.097-89.903-125.097c-7.826-117.279-78.181-54.735-78.181-54.735  c-49.89-46.758-129.585-46.292-159.842-44.177l0,0l0,0c-7.677,0.533-12.173,1.174-12.173,1.174s-109.469-15.636-172.014,43.003  c0,0-70.371-62.544-78.197,54.735c0,0-82.094,35.186-89.903,125.097L1029.66,1010.6c0,0-144.638,97.738-199.39-23.454  l-46.892-160.283l40.531-135.572c9.824-5.928,16.418-16.718,16.418-29.041c0-18.717-15.17-33.895-33.886-33.895  c-18.717,0-33.887,15.178-33.887,33.895c0,6.161,1.648,11.939,4.529,16.918L744.28,795.591l-55.285-122.616  c2.581-4.796,4.063-10.274,4.063-16.103c0-18.717-15.187-33.887-33.903-33.887s-33.887,15.17-33.887,33.887  c0,12.456,6.728,23.338,16.735,29.224l47.541,125.131l-123.74-50.164c-4.796-12.888-17.201-22.08-31.772-22.08  c-18.716,0-33.886,15.169-33.886,33.886s15.17,33.887,33.886,33.887c3.164,0,6.211-0.433,9.109-1.241l138.594,46.842l42.995,138.702  c0,0,23.446,254.1,304.929,164.188c0,0-101.643,347.933-7.826,527.757c0,0-547.298-261.926-390.92,39.098l148.551,297.104  l-254.107-152.456l-64.993-143.689c0.733-2.798,1.149-5.745,1.149-8.775c0-18.717-15.169-33.896-33.886-33.896  s-33.903,15.179-33.903,33.896c0,14.578,9.225,27.009,22.147,31.788l70.388,144.122l-141.691-70.845  c-4.896-12.681-17.202-21.682-31.605-21.682c-18.717,0-33.903,15.179-33.903,33.896c0,18.708,15.187,33.887,33.903,33.887  c0.633,0,1.266-0.025,1.882-0.059l144.055,75.624l-168.184,25.595c-3.663-1.157-7.593-1.79-11.656-1.79  c-21.348,0-38.666,17.31-38.666,38.665c0,21.356,17.318,38.666,38.666,38.666c11.506,0,21.831-5.021,28.908-12.997l209.581-41.222  l254.091,148.552c0,0,423.874,237.997,277.57-132.915c0,0,66.441,66.457,117.263,70.37c0,0,112.334,36.826,179.507,35.41  c0,0.018,66.391,64.235,141.408,0c67.174,1.416,179.491-35.41,179.491-35.41c50.821-3.913,117.279-70.37,117.279-70.37  c-146.32,370.912,277.554,132.915,277.554,132.915l254.107-148.552l209.564,41.222c7.077,7.977,17.401,12.997,28.907,12.997  c21.364,0,38.666-17.31,38.666-38.666C2592.956,1982.13,2575.654,1964.82,2554.29,1964.82z"/></svg>