<svg xmlns="http://www.w3.org/2000/svg" xmlns:xlink="http://www.w3.org/1999/xlink" version="1.1" x="0px" y="0px" viewBox="0 0 192.406 264.974" enable-background="new 0 0 192.406 264.974" xml:space="preserve"><path d="M54.4,185.064c1.366-2.598,2.912-5.529,3.773-7.674c0.739-1.854,1.298-4.056,1.748-5.822  c0.217-0.85,0.471-1.854,0.662-2.428c0.378,0.052,0.864,0.093,1.393,0.129c0.061,0.011,0.117,0.026,0.181,0.026  c0.011,0,0.021-0.01,0.021-0.01c1.961,0.128,4.56,0.173,6.045,0.173c0.864,0,1.732-0.01,2.572-0.033  c3.058-0.088,5.899-1.466,8.642-2.803c1.569-0.764,3.189-1.553,4.788-2.052c2.225-0.699,4.522-1.423,5.807-1.493  c0.051,0.525,0.135,1.493,0.242,2.753c0.456,5.239,1.3,14.984,1.874,19.28c0.741,5.566,0.368,12.468-0.123,15.386  c-0.513,3.103-0.177,9.326,1.049,13.005c1.061,3.188-0.154,24.508-1.174,29.447c-1.076,5.19-0.243,7.334,0.864,9.408  c0.662,1.25,0.436,2.635,0.114,4.547c-0.077,0.451-0.156,0.924-0.224,1.405c-0.114,0.761-0.289,1.413-0.439,1.972  c-0.372,1.395-0.797,2.975,0.932,3.979c0.816,0.485,2.169,0.714,4.135,0.714c1.822,0,4.11-0.211,6.283-0.59  c2.225-0.383,3.446-0.748,3.943-1.691c0.461-0.875,0.025-1.822-0.291-2.511c-0.392-0.856-0.812-2.143-1.252-3.499  c-0.361-1.127-0.739-2.295-1.144-3.322c-0.362-0.941-0.481-2.447-0.233-4.074c0.291-1.824,0.477-3.529,0.125-4.875  c-0.486-1.827-0.745-11.143-1.111-15.439c-0.104-1.221-0.188-2.191-0.24-2.734c-0.107-1.139-0.045-2.727,0.026-4.408  c0.094-2.146,0.188-4.363-0.03-6.299c-0.244-2.218-0.434-1.47,0.244-3.207c0.279-0.726,0.023-2.539,0.277-3.371  c0.58-1.914,0.355-5.759-0.083-9.583c-0.285-2.477,0.58-5.767,0.633-7.358c0.067-2.165,0.502-6.01,1.133-9.799  c0.29,5.176,1.409,11.396,1.067,13.407c-0.513,3.105-0.305,9.325,0.917,13c1.061,3.186-0.829,23.495-1.848,28.437  c-0.933,4.504,0.731,7.29,1.792,9c0.187,0.305,1.29,4.012,0.949,6.405l-0.109,0.755c-0.377,2.489-0.761,5.066,1.201,6.219  c1.02,0.597,2.002,0.879,3.421,0.879c1.015,0,2.251-0.146,3.887-0.427c0.849-0.145,1.712-0.254,2.525-0.362  c2.571-0.326,4.425-0.559,5.062-1.708c0.264-0.478,0.268-1.045,0.014-1.599c-0.386-0.841-1.453-2.096-2.686-3.556  c-1.349-1.594-3.025-3.576-3.461-4.694c-0.368-0.941-0.073-2.794,0.181-4.419c0.29-1.827,0.564-3.561,0.207-4.901  c-0.481-1.832-1.241-10.769-1.614-15.069c-0.104-1.219-0.182-2.189-0.238-2.729c-0.109-1.14-0.042-2.731,0.031-4.409  c0.087-2.147,0.182-4.362-0.031-6.303c-0.273-2.455,0.099-4.602,0.486-6.873c0.13-0.719,0.254-1.438,0.353-2.162  c0.698-4.933,0.393-12.186,0.134-18.582c-0.201-4.842-0.393-9.414-0.129-12.261c0.554-5.927,4.1-16.589,7.039-21.144  c3.203-3.446,4.057-8.403,2.267-13.305c-2.376-6.491-3.634-11.237-3.737-14.106c-0.042-1.312,0.787-2.791,2.054-4.606  c0,0,0,0,0-0.002c0.347-0.501,0.726-1.012,1.114-1.548c1.346-1.845,2.872-3.939,4.066-6.394c0.232-0.477,0.471-0.94,0.71-1.403  c0.435-0.843,0.879-1.667,1.324-2.493c0,0,0,0,0-0.003c1.429-2.644,2.909-5.377,4.238-8.965l0.425-1.139l-0.031-0.005  c0.031-0.085,0.062-0.172,0.088-0.26l0.037,0.021l0.389-1.237c0-0.005,0.004-0.008,0.004-0.013c0.384-1.242,0.762-2.586,1.113-4.054  c0.72-3.002,2.882-9.878,2.882-9.878c1.268-5.045,2.144-9.401,2.779-12.676c0.994-5.059,4.146-12.981,8.312-22.817  c3.519-8.325,4.766-8.333,6.738-8.347c0.254,0,0.491-0.002,0.937-0.018c1.655,0,3.55,1.083,5.568,2.225  c0.905,0.511,1.817,1.028,2.738,1.471c2.907,1.398,6.894,1.957,9.036,2.261l0.724,0.105c0.881,0.136,2.675,1.854,3.753,2.882  c0.553,0.524,1.051,1,1.453,1.325c0.75,0.614,1.574,0.928,2.443,0.928c0.844,0,1.547-0.295,1.883-0.499  c0.374,0,1.646,0.602,2.729,1.285c0.237,0.154,0.532,0.199,0.807,0.121c0.274-0.073,0.508-0.265,0.637-0.518  c0.089-0.189,0.373-0.758,0.104-4.574c-0.275-3.853-3.861-7.618-6.6-10.492c-1.64-1.72-2.224-3.673-3.036-6.372  c-0.331-1.112-0.699-2.32-1.169-3.643c-1.306-3.614-3.51-5.13-5.638-6.594c-0.62-0.425-1.246-0.85-1.852-1.34  c0.207-2.292,0.569-5.694,0.801-6.482c0.126-0.413,0.204-0.843,0.28-1.281c0.154-0.877,0.295-1.705,0.947-2.574  c0.486-0.641,0.563-1.394,0.222-2.074c-0.844-1.697-3.99-2.338-6.044-1.892c-0.9,0.19-1.506,0.615-1.807,1.257  c-0.506,1.082,0.125,2.269,0.539,3.056c0.098,0.18,0.207,0.348,0.211,0.31l0.013,0.351c0.087,4.467-0.224,6.051-0.411,6.598  c-0.346-0.397-0.864-1.418-1.143-2.621c-0.123-0.525-0.327-1.102-0.533-1.669c-0.223-0.623-0.595-1.664-0.555-1.887  c0.637-0.546,0.938-1.396,0.808-2.278c-0.175-1.199-1.065-2.228-2.452-2.833c-1.961-0.858-4.627,0.596-5.279,2.011  c-0.311,0.674-0.243,1.352,0.188,1.853c1.33,1.552,2.396,5.808,2.287,7.494l-0.031,0.591c-0.012,0.086-0.012,0.163-0.016,0.229  c-0.031,0.006-0.063,0.01-0.098,0.018l-0.705,0.137c-0.833,0.177-1.464,0.633-2.019,1.034c-0.719,0.516-1.116,0.827-1.842,0.286  c-2.153-1.616-7.483-4.2-10.874-4.984c-2.411-0.556-3.338,0.143-3.627,0.779c-0.394,0.848-0.031,1.916,1.108,3.262  c1.402,1.656,2.256,2.761,3.575,4.931c0.207,0.332,0.667,0.827,1.165,1.313c-0.321,0.118-67.115,86.755-69.074,88.178  c-7.948,5.774-10.774,7.011-21.27,9.624c-4.27,1.063-9.113,2.269-14.212,3.858c-16.462,5.129-21.072,11.53-21.745,12.597  c-2.515,2.475-3.804,6.338-5.284,10.797c-0.307,0.913-0.615,1.845-0.942,2.786c-1.257,3.603-1.702,9.207-2.096,14.14  c-0.218,2.716-0.419,5.288-0.729,7.156c-0.768,4.581-2.723,8.647-4.183,11.647l-0.057,0.005l-0.222,0.56  c-0.181,0.461-0.632,1.25-1.158,2.196c-1.254,2.246-2.973,5.315-3.267,7.409c-0.187,1.334-0.118,2.424-0.058,3.381  c0.104,1.656,0.172,2.754-1.041,4.404c-0.573,0.777-1.096,1.351-1.547,1.832c-1.453,1.584-2.246,2.627-1.594,5.589  c0.244,1.126,0.601,2.169,0.911,3.095c0.75,2.195,1.134,3.489,0.367,4.557c-0.248,0.34-0.993,1.38-0.518,2.311  c0.238,0.464,0.72,0.736,1.289,0.736c1.159,0,2.613-1.108,3.457-2.64c0.331-0.603,0.74-1.093,1.169-1.603  c1.223-1.454,2.604-3.104,2.759-7.766c0.114-3.393-3.057-3.786-2.326-5.315c0.506-1.07,0.498-3.933,1-6  c1.201-4.913,0.916-5.833,4.456-10.287c-0.02-0.191,0.561-1.255,0.561-1.255c0.076-0.373,0.461-1.848,2.442-6.76  c2.562-6.35,4.901-14.34,6.23-21.229c0.353,3.037,1.279,7.68,2.127,11.906c0.384,1.901,0.729,3.641,0.964,4.947  c0.927,5.131,1.324,15.797-0.353,21.676c-0.632,2.21-1.262,3.725-1.771,4.937c-0.904,2.174-1.5,3.612-0.76,6.128  c0.947,3.193,2.908,15.92,4.269,26.275c0.999,7.596,0.245,11.943-0.31,15.116c-0.129,0.767-0.249,1.454-0.326,2.08  c-0.342,2.867,1.205,5.735,2.226,7.634c0.231,0.427,0.439,0.812,0.594,1.145c0.694,1.467,0.436,3.459,0.043,4.339  c-0.218,0.489-0.171,1.02,0.107,1.457c0.26,0.397,1.051,1.614,7.396,1.614c3.943,0,7.194-1.286,7.334-1.346  c0.32-0.125,0.554-0.409,0.615-0.748c0.062-0.344-0.051-0.691-0.306-0.929c-0.015-0.016-1.904-1.786-4.982-5.356  c-2.438-2.83-2.759-5.124-3.452-10.151c-0.14-1.017-0.295-2.134-0.481-3.376c-1.082-7.064-0.03-28.65,0.874-33.166  c0.181-0.918,0.362-1.68,0.522-2.3c1.107,2.686,3.131,6.313,3.819,7.437c0.813,1.325,3.81,10.857,6.004,17.82  c1.408,4.464,2.618,8.32,3.146,9.709c0.585,1.539,0.951,3.688,1.278,5.582c0.554,3.258,0.921,5.136,1.936,5.973  c0.315,0.252,0.653,0.514,0.998,0.786c1.128,0.874,2.407,1.868,3.1,2.91c0.539,0.806,0.385,3.145,0.104,4.553  c-0.098,0.495,0.187,0.984,0.656,1.153c0.09,0.033,2.356,0.83,6.19,0.691l1.171-0.034c2.746-0.077,4.402-0.124,5.092-1.181  c0.216-0.336,0.402-0.904-0.006-1.854c-0.141-0.22-3.4-5.344-5.651-7.196c-2.013-1.661-4.378-5.92-4.446-6.682  c0.109-0.858-0.273-1.992-0.76-3.432c-0.258-0.77-0.549-1.629-0.781-2.514c-0.187-0.707-0.942-3.149-1.937-6.338  c-2.157-6.91-6.168-19.776-6.251-21.531c-0.047-1.034,0.166-2.474,0.414-4.14c0.353-2.386,0.745-5.093,0.601-7.882  c-0.229-4.218,0.046-6.881,0.94-9.194C52.351,188.936,53.345,187.056,54.4,185.064z"></path></svg>