<svg xmlns="http://www.w3.org/2000/svg" xmlns:xlink="http://www.w3.org/1999/xlink" version="1.1" x="0px" y="0px" viewBox="0 0 100 100" enable-background="new 0 0 100 100" xml:space="preserve"><path d="M91.29,37.257L95,36.004l-3.951,0.144l1.928-1.638l-2.409,0.94l2.409-2.144l-2.844,1.83l1.686-3.18l-2.361,2.939  l0.152-0.439l0.619-1.778l-1.687,2.266v-2.266l-0.24,2.217c-1.494,4.192-5.589,4.047-5.589,4.047s-1.542,0.579-6.167-3.71  c0,0-2.843-2.795-14.408-1.879c0,0-5.564,1.109-16.26-0.77c0,0-1.25,0-3.002-0.08c-3.523-0.161-9.073-0.641-10.586-2.089  c0,0-5.975-3.083-8.914-5.975c0,0,1.975-0.868,1.685-1.253c0,0,0.532-1.831-2.938-0.146c0,0-2.073,0.386-1.685-1.493  c0,0,3.468-2.409,8.528,0c0,0,1.553,0.602,0.831-0.614c0,0-0.735-0.719-1.762-1.298l1.767,0.804c0,0,1.04,0.369,0.687-0.325  l-1.432-1.432c-1.823-1.28-5.85-2.958-11.623,1.114v0.112c0,0-2.032-0.168-3.646,2c0,0-0.531,1.831-4.794,3.831  c0,0-3.589,2.288-3.614,4.481c0,0,0.192,0.096-0.193,0.506c0,0-0.699,0.915,0.603,0.94c0,0-0.408,1.221,1.099,1.571l0.004,0.001  c0.089,0.021,0.185,0.037,0.288,0.052c0.867,0.17,3.409,0.792,3.865,2.284c0.056,0.6-0.387,1.393-1.881,2.524  c0,0,0.462-0.113,1.093-0.42c1.147-0.561,2.862-1.767,3.446-4.166c0.613-0.109,1.337-0.289,2.182-0.571c0,0,5.807-2.624,7.251,4.554  c0,0,0.578,1.302,2.458,2.65c0,0,4.373,4.75,6.15,7.934h0.001l0.495,1.727l1.796,6.277c0.316,0.969,0.663,3.037,0.042,6.927  c-0.001,0.008-0.003,0.016-0.004,0.024c0,0-0.262,1.05,0.348,3.105c0,0,1.204,5.753-1.535,8.035c0,0-2.444,2.48-1.316,3.023l0,0  h0.001c0.198,0.095,0.501,0.132,0.951,0.084c0,0,3.059-0.822,3.927-2.055c0,0-0.594-0.73,0.366-1.052c0,0,1.278-0.455,1.004-1.643  c0,0-1.735-3.651-0.822-6.117c0,0,0.982-4.343,1.415-7.812c0.18,1.255,0.22,3.19-0.241,6.07c0,0-0.277,1.108,0.368,3.276  c0,0,1.27,6.072-1.621,8.481c0,0-3.565,3.615-0.386,3.277c0,0,3.228-0.868,4.144-2.168c0,0-0.626-0.77,0.386-1.109  c0,0,1.349-0.481,1.06-1.735c0,0-1.831-3.855-0.868-6.457c0,0,1.765-7.807,1.707-11.181c1.873-0.621,3.023-0.604,3.557-0.532  c0.149,0.021,0.251,0.045,0.305,0.061c0.017,0.004,0.033,0.011,0.051,0.016c4.519,1.403,11.349,2.92,16.935,1.593  c0.265-0.07,0.539-0.143,0.817-0.217c1.073-0.285,2.248-0.604,3.547-0.953c1.513,2.014,3.51,4.656,4.006,5.233  c0,0,3.56,3.516,3.241,7.489c0,0,0.549,3.88-0.365,6.164c0,0-2.42,2.602-1.141,4.201c0,0,3.333,0.455,3.562-0.913  c0,0-0.549-1.142,0.547-1.189c0,0,0.822-1.78,1.461-1.78c0,0-2.192-2.877-0.548-11.553c0,0,0.033-0.051,0.062-0.136  c1.051,1.262,3.051,4.104,2.801,7.212c0,0,0.58,4.096-0.384,6.505c0,0-2.553,2.747-1.204,4.433c0,0,3.517,0.482,3.758-0.963  c0,0-0.579-1.205,0.578-1.253c0,0,0.868-1.879,1.54-1.879c0,0-2.311-3.036-0.577-12.191c0,0,0.385-0.578-0.339-1.108  c0,0-7.274-6.746-2.986-14.985c0,0,2.705-3.916,2.602-7.435c0.774-2.197,1.733-2.395,1.733-2.395l2.337,1.06l-1.71-1.397  l2.505,1.204l-1.398-1.492l2.602,1.492l-2-1.878l2.675,0.24l-1.59-0.77h2.458l-2.024-0.578l3.952-0.532l-2.941-0.047l3.084-0.868  L91.29,37.257z"/></svg>