<svg xmlns:dc="http://purl.org/dc/elements/1.1/" xmlns:cc="http://creativecommons.org/ns#" xmlns:rdf="http://www.w3.org/1999/02/22-rdf-syntax-ns#" xmlns:svg="http://www.w3.org/2000/svg" xmlns="http://www.w3.org/2000/svg" xmlns:sodipodi="http://sodipodi.sourceforge.net/DTD/sodipodi-0.dtd" xmlns:inkscape="http://www.inkscape.org/namespaces/inkscape" version="1.1" x="0px" y="0px" viewBox="-2 0 100 100"><g transform="translate(0,-952.36218)"><path style="color:#000000;enable-background:accumulate;" d="m 21.001393,961.36241 c 0.19887,1.1759 0.19887,2.4649 0,4.0676 -0.82131,-0.2509 -1.33331,-0.8839 -1.99996,-2.0338 -0.39773,1.5149 -0.28724,3.1498 0,5.069 -0.91157,1.0635 -1.96846,3.0763 -2.06246,4.0051 -1.86201,4.2904 -4.17728,6.9591 -3.93742,9.1992 0.0277,2.0054 2.04417,3.0154 2.99994,3.0665 0.99996,-0.051 2.02208,-1.0611 2.99994,-3.0665 2.03117,-0.9424 3.99996,-2.1086 5.99989,-4.0676 2.02102,0.046 2.94796,6.1652 1.99996,8.1354 -3.14132,5.0534 -4.99391,9.1366 -4.99991,15.26939 l -3.99992,0 c -3.96105,-1.0046 -7.53658,-1.56599 -8.9998298,2.0338 -0.96912,3.0245 -3.06944,6.998 -2.99994,9.1367 0.0521,1.0378 0.66667,2.7121 0.99998,4.0677 0.0417,2.7113 0.95833,5.1213 1.99996,5.1002 0.94788,0.064 1.9582698,-2.1132 1.9999598,-3.0663 -0.0417,-2.0547 -1.3333098,-2.7119 -1.9999598,-4.0678 0.37788,-4.9104 0.7337,-8.6421 4.9999098,-9.1367 5.75407,1.9391 9.69596,2.6681 14.46847,2.0965 2.62661,-0.953 4.04069,-2.5501 5.84364,-4.2554 0.49202,-0.4234 0.91185,-0.3325 1.24228,-0.071 0.43273,0.3761 0.59142,1.1469 0.13269,1.5419 -1.69732,1.6052 -3.26133,3.1367 -5.46864,4.1927 3.66077,4.0872 8.63716,7.065 14.87471,7.5723 -0.20239,-2.4502 0.4308,-4.4926 0.96873,-6.7586 0.10012,-0.4479 0.54188,-0.7934 0.99998,-0.7823 0.60796,-2e-4 1.12065,0.6621 0.96874,1.2515 -0.57443,2.4201 -1.31813,4.0736 -0.90624,6.6961 0.99531,4.1147 4.10117,8.002 6.87487,11.8902 l 0,2.0338 c -2.84145,1.0879 -4.97597,3.1136 -6.99986,5.1003 -3.12872,0.045 -6.58797,0.7699 -6.69052,2.9023 0.19792,0.7509 0.55521,0.7898 1.22187,1.134 -0.88572,0.9718 -1.00948,1.862 -0.81248,2.8788 1.00371,1.0556 3.96808,1.1762 5.28114,0.1877 0.58332,-0.4172 1.10415,-1.9609 1.65622,-2.9412 l 1.34373,-0.094 c 3.0201,-3.3609 5.974067,-6.0423 7.999837,-7.1341 1.99619,0.1983 3.5726,-0.7043 3.99993,-2.0339 0.37375,-1.3104 -0.66667,-2.712 -0.99998,-4.0676 -0.30936,-2.2358 -0.33146,-4.9443 0,-6.1016 4.9998,-5.0836 8.55789,-8.3583 8.55789,-16.4921 l 1.85091,1.2817 c 0,15.2511 8.59111,18.2761 23.59055,14.2091 -6.99974,-2.0335 -10.99984,-3.0672 -13.99974,-7.1341 1.99994,0 3.99999,1.0167 6.99987,0 -9.99962,-3.0502 -9.00006,-14.22099 -20.9996,-13.20429 -3.99984,-5.0836 -13.999857,-6.1175 -20.999597,-7.1342 0,-7.117 -1.00006,-10.1701 -4.9999,-14.2368 1.99992,0 3.33331,0.6937 4.9999,1.0325 -2.99988,-4.0668 -6.99992,-6.1019 -9.9998,-8.1354 l 4.06242,0.031 c -5.04943,-4.0834 -8.06399,-6.1222 -15.06221,-5.0377 -1.00147,-2.1013 -1.99999,-3.1135 -2.99995,-4.1302 z m -7.12486,44.77559 c -0.79563,4.698 -1.89484,6.6821 -1.87496,8.6047 0.0687,1.045 1.94962,2.9033 2.65619,3.8799 0.27428,1.9429 1.07887,3.9739 2.28121,4.0365 1.07041,0.073 1.16856,-2.9735 1.15623,-4.1616 -0.0754,-0.9036 -1.33332,-1.8778 -2.09371,-2.8474 -0.14439,-3.0764 0.0742,-6.5136 1.56247,-8.4796 -1.30813,-0.4004 -2.59423,-0.7508 -3.68743,-1.0325 z" fill="#000000" stroke="none" marker="none" visibility="visible" display="inline" overflow="visible"/></g></svg>