<svg xmlns="http://www.w3.org/2000/svg" xmlns:xlink="http://www.w3.org/1999/xlink" version="1.1" x="0px" y="0px" viewBox="0 0 100 100" enable-background="new 0 0 100 100" xml:space="preserve"><g><path d="M69.331,44.28l-1.164,4.062l-1.596-1.72c-3.57-3.742-4.426-7.74-4.366-10.844c-1.643,1.382-3.695,2.344-6.288,2.344   c-1.066,0-2.183-0.171-3.323-0.511c-11.025-3.263-18.5-2.242-23.917,3.264c-3.03,3.086-2.35,6.645-1.568,10.931   c0.624,3.37,1.322,7.357,0.103,11.192C25.135,69.532,28.058,78,29.021,83h8.038c-0.507,0-1.266-1.438-2.318-1.609   c-1.517-0.247-2.657-1.284-3.127-3.071c-0.772-2.914,0.34-7.698,4.598-11.128c5.063-4.077,4.817-9.665,4.826-9.72l0.405-2.019   l1.657,1.176c4.268,3.072,9.699,3.707,13.506,3.707c3.509,0,6.092-0.563,6.115-0.567l1.322-0.316l0.247,1.257   c0.494,2.672,0.065,10.317,2.025,12.826C68.432,76.238,68.702,78,68.688,83h8.121c-0.977,0-2.783-2.336-4.473-3.178l-0.563-0.163   l-0.135-0.688c-1.885-8.629,1.522-19.107,1.671-19.55l0.13-0.408l0.331-0.089c3.7-2.755,6.567-3.924,8.769-3.924   c0.014,0,0.028,0,0.042,0C79.918,50,73.272,46.333,69.331,44.28z"/><path d="M24.847,48.701c-3.211,5.803-10.56,16.322-20.464,15.61c-1.326-0.107-2.225,0.367-2.522,0.875   c-0.14,0.246-0.079,0.4,0,0.521c0.368,0.544,2.02,1.326,5.85,0.768c9.211-1.336,16.569-10.621,17.681-14.614   c-0.051-0.293-0.103-0.582-0.158-0.87C25.098,50.227,24.968,49.464,24.847,48.701z"/><path d="M90.362,23.81l-0.219-0.474C89.706,21.032,87.845,21,87.766,21h-0.577l-0.391-0.415c-2.322-2.513-5.524-3.73-9.522-3.73   c-0.568,0-1.122,0.001-1.634,0.048l4.766,2.229l-4.835,0.431c-4.454,0.4-7.666,2.75-9.49,4.519l2.108,0.011l-0.335,1.478   C67.804,25.798,67.218,31,65.756,31h0.009c-0.121,0-2.648,6.072,1.182,11.759l0.703-2.442l1.406,0.687   c0.624,0.294,13.734,6.576,16.699,14.185c5.436-6.66,1.657-13.025,1.476-13.313l-1.853-3l4.124,1.287   c-0.172-0.4-0.358-0.797-0.531-1.165c-0.758-1.62-1.256-2.69-0.651-3.64c0.619-0.968,1.625-1.131,4.086,0.205   c0.53,0.289,1.033,0.423,1.508,0.423c1.806,0,3.276-2.169,4.044-3.714C95.002,30.256,91.191,24.974,90.362,23.81z M87.417,27.371   l-1.024-2.723l4.319,3.402L87.417,27.371z"/></g></svg>