<svg xmlns="http://www.w3.org/2000/svg" xmlns:xlink="http://www.w3.org/1999/xlink" version="1.1" x="0px" y="0px" viewBox="0 0 100 100" enable-background="new 0 0 100 100" xml:space="preserve"><path d="M6.427,63.563c2.882,0.433,4.505-2.284,5.385-4.874c-0.241-0.512-0.467-1.03-0.658-1.559  c-0.395-1.098-0.653-2.167-0.809-3.194c-2.112,2.857-5.155,5.909-8.651,6.169C2.147,61.13,4.097,63.209,6.427,63.563z"/><path d="M14.083,56.131c1.615,4.442,5.502,8.208,11.546,11.229c0.313,0.13,1.778,0.655,2.463-0.637  c0.374-0.791,0.715-1.481,0.999-2.042c0.233-0.319,0.83-0.904,1.821-0.36c1.291,0.706,0.833,1.959,0.817,1.998  c-3.174,6.349-6.57,15.479-5.097,18.21c0.154,0.286,0.389,0.56,1.058,0.625c5.88,0.574,12.156,0.271,14.802,0.096  c0.038-1.58-0.211-3.897-1.519-5.039c-0.844-0.733-2.132-0.949-3.825-0.663c-0.002-0.008-0.004-0.017-0.004-0.017  s-1.381,0.304-1.796-1.092c-0.345-1.16,0.639-1.729,0.978-1.886c1.271-0.243,2.426-0.285,3.462-0.127  c1.623-2.715,6.057-11.075,3.676-17.452C42.318,55.9,39.5,53.64,35.5,52.23v-0.004c0,0-1.451-0.552-1.064-1.953  c0.299-1.083,1.456-1.074,1.959-1.015c4.632,1.548,7.82,4.069,9.497,7.512c3.403-0.539,9.726-1.77,13.161-3.328  c-0.824-2.346-1.443-7.259,2.918-14.778c0.326-0.373,1.081-0.5,1.998,0.103c1.234,0.811,0.536,2.731,0.536,2.731h0.003  c-3.438,5-3.144,9.332-2.646,11.091l0.63,1.16c2.478,5.57,10.097,23.925,4.157,27.813c-1.247,0.816-0.945,1.314-0.768,1.651  c0.974,1.826,5.347,3.662,8.285,2.427c4.709-1.982,7.563-14.275-0.838-35.369l-0.453-1.146l1.003-0.706  c0.062-0.043,6.274-4.218,7.057-10.818c0.408-3.441-0.731-7.104-3.382-10.104c0.003,0,0.011,0,0.011,0s-0.021-0.303-0.058-0.338  c-0.065-0.086-0.13-0.312-0.197-0.395c-0.261-0.397-0.522-1.191,0.3-1.943c1.105-1.015,2.367-0.045,2.558,0.166  c1.363,1.759,2.335,3.505,3.335,5.305v-0.016c0,0,0.721,2.12,1.261,0.304c0.109-0.468,0.113-0.938,0.237-1.408  c0.527-1.985,1.063-4.237,1.002-7.02c-0.064-2.836,0.771-4.92,2.535-6.194c1.648-1.192,3.714-1.38,5.472-1.241  c-1.27-2.346-2.778-4.336-4.296-5.593c-0.938-0.777-2.3-1.61-3.445-1.167c-2.391,0.924-4.761,2.231-7.271,3.613  c-3.583,1.976-7.65,4.215-12.719,5.852c-0.492,0.145-45.119,13.288-51.687,27.79l-0.042,0.083  C14.524,45.342,11.983,50.362,14.083,56.131z"/><path d="M19.503,67.332c-2.352,3.483-5.987,10.263-4.009,14.047c1.237,2.37,4.626,3.135,7.933,3.27  c-0.796-3.494,0.902-9.021,2.761-13.604C23.667,69.924,21.438,68.684,19.503,67.332z"/><path d="M95.022,29.642c-1.809,0-3.279-1.47-3.279-3.281c0-1.809,1.471-3.281,3.279-3.281c0.809,0,1.55,0.295,2.122,0.785  c-0.298-1.923-0.854-3.891-1.586-5.764c-1.503-0.355-3.876-0.624-5.25,0.371c-0.887,0.643-1.316,1.861-1.278,3.614  c0.072,3.221-0.613,5.807-1.165,7.885c-0.983,3.711-1.192,4.536,2.543,5.617c0.458,0.082,0.896,0.101,1.297,0.026  c0.402-0.076,0.94-0.265,1.463-0.929c-0.377-0.165-0.745-0.378-1.092-0.647c-0.14-0.235-0.441-0.94,0.462-1.632  c0.801-0.615,1.602-0.579,1.98-0.515c0.458,0.171,0.985,0.235,1.35,0.25c0.48-0.33,0.98-1.011,1.301-2.737  c0.04-0.215,0.073-0.438,0.103-0.66C96.684,29.299,95.894,29.642,95.022,29.642z"/><path d="M85.916,82.26c0.669,0.428,2.836-0.489,4.355-1.597c6.718-9.382-5.561-28.521-5.688-28.715L84.5,51.56v-0.462  c0-1.94-0.615-4.475-1.211-6.823c-0.412-0.875-1.153-0.417-1.459-0.142c-1.692,2.916-3.924,5.01-5.179,6.058  c3.305,8.549,4.856,15.75,5.157,21.543l4.338,3.329l-0.221,0.966C84.961,80.33,85.464,81.969,85.916,82.26z"/><path d="M94.835,26.361c0,0.208,0.376,0.209,0.376,0c0-0.104-0.084-0.188-0.188-0.188C94.919,26.172,94.835,26.257,94.835,26.361z"/></svg>