<svg xmlns:dc="http://purl.org/dc/elements/1.1/" xmlns:cc="http://creativecommons.org/ns#" xmlns:rdf="http://www.w3.org/1999/02/22-rdf-syntax-ns#" xmlns:svg="http://www.w3.org/2000/svg" xmlns="http://www.w3.org/2000/svg" xmlns:sodipodi="http://sodipodi.sourceforge.net/DTD/sodipodi-0.dtd" xmlns:inkscape="http://www.inkscape.org/namespaces/inkscape" version="1.1" x="0px" y="0px" viewBox="0 0 100 100"><g transform="translate(0,-952.36218)"><path d="m 48.091841,984.3622 c 10.04189,0 21.11292,7 31.15481,15 1.00419,-3.0246 5.02254,-5.9896 7.03092,-5 2.00838,1 3.00833,7 0.99996,12 3.01256,6 10.03341,12.0001 1.9999,14 l -54.21623,0 c -4.03915,0 -9.37553,-3.8884 -11.31198,-6.9687 -5.464729,0.4535 -9.382149,-0.02 -12.155689,-1.1875 -2.8490498,-1.1997 -4.5935298,-3.4549 -4.5935298,-5.8438 0.41058,-3.4294 3.1411598,-5.3059 5.9059698,-6.375 2.93081,-1.11655 6.326789,-1.625 9.093329,-1.625 1.29062,0.0666 2.1065,1.13712 2.09405,2.0938 -0.0491,1.0473 -1.04678,1.9555 -2.09405,1.9062 -2.23323,0 -5.336939,0.4915 -7.655889,1.375 -1.45201,0.5732 -2.79638,1.2723 -3.3436,2.625 0,0.6111 0.25543,1.3559 2.15615,2.1563 1.81102,0.7625 5.05376,1.3048 9.937039,0.9375 1.00808,-12.42329 11.62763,-25.0938 24.99884,-25.0938 z m 30.90482,22 c -1.10452,0 -1.99991,0.8955 -1.99991,2 0,1.1046 0.89539,2 1.99991,2 1.10452,0 1.99991,-0.8954 1.99991,-2 0,-1.1045 -0.89539,-2 -1.99991,-2 z" style="color:#000000;enable-background:accumulate;" fill="#000000" stroke="none" marker="none" visibility="visible" display="inline" overflow="visible"/></g></svg>