<svg xmlns="http://www.w3.org/2000/svg" xmlns:xlink="http://www.w3.org/1999/xlink" version="1.1" x="0px" y="0px" viewBox="0 0 100 100" enable-background="new 0 0 100 100" xml:space="preserve"><path d="M35.472,25.835c0,0,8.602-23.175,12.675-20.642c4.073,2.533,4.585,8.909,1.412,15.282  c-2.94,5.906-6.723,10.187-6.723,10.187c2.565,2.111,3.138,8.029,0.965,12.795c0,0,12.222-2.503,24.14,4.828  c11.921,7.332,17.142,18.106,17.142,27.159c0,9.052-2.715,19.555-12.432,19.555H45.845c-0.601,0-1.095-0.488-1.02-1.083  c0.483-3.756,3.583-5.832,9.352-5.832c-3.254-0.747-6.995-5.456-7.478-8.293c-4.332,4.621-6.59,11.544-7.329,14.157  c-0.162,0.578-0.762,1.051-1.362,1.051h-8.451c-0.999,0-1.871-0.831-1.599-1.793c1.03-3.626,5.461-1.209,5.461-15.104  c0-7.544-13.7-12.885-7.846-30.539c0,0-11.376-0.361-10.621-7.485C15.707,32.955,28.321,24.388,35.472,25.835z"/></svg>