<svg xmlns="http://www.w3.org/2000/svg" xmlns:xlink="http://www.w3.org/1999/xlink" version="1.1" x="0px" y="0px" viewBox="0 0 100 100" enable-background="new 0 0 100 100" xml:space="preserve"><path d="M94.969,37.959c0.555-8.141-6.571-10.64-6.571-10.64s-1.572-2.776-3.237-3.147c-1.664-0.368-3.515,0-3.515,0  c-0.555-2.035-4.532-0.182-4.628-1.448c-0.092-1.264-3.699,1.634-4.071,0.329c-0.367-1.305-1.849,1.769-3.607,0.658  c-1.758-1.109-2.96,2.499-3.791,0.74c-0.835-1.757-2.87,0.557-3.517-0.279c-0.647-0.832-2.776,1.482-3.978-0.091  c-1.202-1.574-3.609,1.111-3.609,0.185c0-0.926-4.254,0.555-4.254-0.462c0-1.019-3.795,1.203-3.795,0  c0-1.203-3.331,1.756-3.701-0.093c-0.37-1.851-2.497,1.296-3.143-0.277c-0.648-1.574-2.407,2.312-2.962,1.202  c-0.555-1.112-2.219,2.128-2.497,1.573c-0.28-0.555-2.404,1.941-2.96,1.757c-0.555-0.184-2.407,1.572-2.407,1.572  s-1.852,1.943-2.407,1.389c-0.555-0.557-1.663,1.295-2.68,0.925c-1.019-0.371-1.666,1.666-2.405,1.017  c-0.743-0.647-1.113,2.775-1.854,1.48c-0.739-1.295-0.647,1.388-1.755,1.203c-1.111-0.185-0.37,2.035-1.111,1.018  c-0.741-1.017-2.035,0.833-2.407,1.664c-0.37,0.835-1.666,1.018-1.666,1.018c-2.033-1.018-2.221,1.667-2.221,1.667  c0,1.294-1.849,1.849-1.849,1.849C2.08,48.042,6.522,52.947,6.522,52.947c0.924,3.33,0.924,9.161,0.924,9.161  c0.094,5.364,5.089,6.106,5.089,6.106c1.48,0.554,4.812-5.182,4.812-5.182c0-1.479,6.106-4.44,7.03-5.087  c0.924-0.648,0.092-2.128,0.739-1.758c0.647,0.369,2.221-0.65,2.221-0.65c4.35-6.66,7.68,0,7.68,0  c1.698,3.263,4.038,4.882,5.961,5.685c-0.197,0.293-0.409,0.794-0.387,1.343c-0.149,0.829-0.002,1.82,0.912,2.665  c-0.144,1.436-0.56,3.923-1.788,4.795c-1.666,1.184-1.224,1.621-0.468,1.902c0.048,0.018,0.094,0.034,0.142,0.049  c0.252,0.085,0.794,0.184,1.406,0.208c-0.384,0.92-0.892,1.715-1.558,2.188c-2.486,1.765-1.828,2.422-0.697,2.84  c0.07,0.025,0.14,0.05,0.21,0.074c1.25,0.416,7.148,1.042,6.178-2.705c0,0-0.039-7.911,1.141-12.505  c2.175-0.486,3.29-3.207,3.29-3.207c18.041,5.367,23.13-2.035,23.13-2.035c5.92-0.647,3.699,2.314,4.81,3.332  c0.35,0.32,1.113,0.503,1.994,0.604c-0.599,1.169-3.139,5.817-5.833,6.336c-2.903,0.561-2.588,1.404-1.757,2.229  c0.05,0.05,1.386,0.572,1.386,0.572s3.564-0.971,5.312-0.329c0,0,2.26-5.019,4.704-8.733c0.356-0.016,0.577-0.031,0.577-0.031  c0.184,0.138,0.326,0.43,0.446,0.812c-0.455,0.938-0.717,2.524,0.765,3.746c0.087,0.339,0.192,0.649,0.319,0.909  c-0.111,1.754-0.607,6.571-2.745,8.093c-2.488,1.765-1.828,2.422-0.7,2.84c0.07,0.025,0.14,0.05,0.212,0.074  c1.248,0.416,7.146,1.042,6.176-2.705c0,0-0.024-5.378,0.628-9.838c0.361-0.504,0.758-1.1,1.191-1.802  c6.106-9.9,0.739-13.878,2.404-16.282C94.043,44.25,94.969,37.959,94.969,37.959z"/></svg>