<svg xmlns:dc="http://purl.org/dc/elements/1.1/" xmlns:cc="http://creativecommons.org/ns#" xmlns:rdf="http://www.w3.org/1999/02/22-rdf-syntax-ns#" xmlns:svg="http://www.w3.org/2000/svg" xmlns="http://www.w3.org/2000/svg" xmlns:sodipodi="http://sodipodi.sourceforge.net/DTD/sodipodi-0.dtd" xmlns:inkscape="http://www.inkscape.org/namespaces/inkscape" viewBox="0 10 135 135" version="1.1" x="0px" y="0px"><g transform="translate(0,-161.535)"><path style="color:#000000;font-style:normal;font-variant:normal;font-weight:normal;font-stretch:normal;font-size:medium;line-height:normal;font-family:sans-serif;font-variant-ligatures:normal;font-variant-position:normal;font-variant-caps:normal;font-variant-numeric:normal;font-variant-alternates:normal;font-feature-settings:normal;text-indent:0;text-align:start;text-decoration:none;text-decoration-line:none;text-decoration-style:solid;text-decoration-color:#000000;letter-spacing:normal;word-spacing:normal;text-transform:none;writing-mode:lr-tb;direction:ltr;text-orientation:mixed;dominant-baseline:auto;baseline-shift:baseline;text-anchor:start;white-space:normal;shape-padding:0;clip-rule:nonzero;display:inline;overflow:visible;visibility:visible;opacity:1;isolation:auto;mix-blend-mode:normal;color-interpolation:sRGB;color-interpolation-filters:linearRGB;solid-color:#000000;solid-opacity:1;vector-effect:none;fill:#000000;fill-opacity:1;fill-rule:nonzero;stroke:none;stroke-width:1.32292;stroke-linecap:round;stroke-linejoin:round;stroke-miterlimit:4;stroke-dasharray:none;stroke-dashoffset:0;stroke-opacity:1;paint-order:markers fill stroke;color-rendering:auto;image-rendering:auto;shape-rendering:auto;text-rendering:auto;enable-background:accumulate" d="m 67.7423,163.135 a 0.743145,0.743145 0 0 0 -0.73,0.753 v 37.685 c -2.7699,1.483 -18.94,10.827 -18.94,26.515 0,12.002 4.97,19.236 11.4001,22.431 -0.3302,0.721 -0.75,1.729 -1.1501,2.895 l -18.54,-11.586 -11.7999,-21.233 a 0.743145,0.743145 0 0 0 -0.6701,-0.39 0.743145,0.743145 0 0 0 -0.63,1.113 l 11.8901,21.4 a 0.743145,0.743145 0 0 0 0.25,0.268 l 19.03,11.89 a 0.743576,0.743576 0 0 0 0,0.02 c -0.2701,1.035 -0.48,2.142 -0.5601,3.259 l -20.41,-2.27 a 0.743145,0.743145 0 0 0 -0.1199,0 0.743145,0.743145 0 0 0 -0.12,0.02 l -19.0399,4.755 a 0.743145,0.743145 0 1 0 0.36,1.442 l 18.9098,-4.722 20.4102,2.267 c 0,0.648 0.1299,1.289 0.2998,1.909 0,0.153 0.1,0.306 0.1301,0.459 l -18.66,3.392 a 0.743145,0.743145 0 0 0 -0.39,0.203 l -11.8901,11.891 a 0.746709,0.746709 0 1 0 1.0601,1.05 l 11.72,-11.724 18.64,-3.392 c 0.3799,0.964 0.84,1.9 1.3801,2.779 l -9.0602,11.34 a 0.743145,0.743145 0 0 0 -0.1299,0.262 l -4.7699,16.642 a 0.749029,0.749029 0 0 0 1.4398,0.413 l 4.7102,-16.502 8.6998,-10.864 c 0.2301,0.299 0.4601,0.587 0.7202,0.862 1.0699,1.18 2.35,2.133 3.7899,2.68 0,0.202 0,0.44 0.1,0.694 0,0.293 0.1201,0.6 0.2399,0.905 0,0.15 0.1601,0.309 0.3101,0.468 0.1501,0.156 0.4199,0.304 0.7099,0.304 a 0.743145,0.743145 0 0 0 0.33,-1.415 c 0,-0.101 -0.1098,-0.27 -0.1098,-0.474 0,-0.02 0,-0.05 0,-0.07 0.3899,0.06 0.79,0.1 1.1998,0.1 0.43,0 0.8401,-0.04 1.2502,-0.105 0,0.03 0,0.05 0,0.08 0,0.201 -0.1101,0.373 -0.1101,0.474 a 0.743145,0.743145 0 0 0 0.3199,1.416 c 0.3001,0 0.5702,-0.151 0.7199,-0.307 0.1601,-0.159 0.3101,-0.315 0.3101,-0.469 0.1202,-0.304 0.23,-0.608 0.23,-0.902 0,-0.259 0.1,-0.503 0.1,-0.706 1.4301,-0.548 2.69,-1.495 3.76,-2.665 0.25,-0.275 0.49,-0.563 0.7202,-0.862 l 8.6799,10.866 4.7199,16.502 a 0.749582,0.749582 0 0 0 1.4402,-0.41 l -4.7702,-16.645 a 0.743145,0.743145 0 0 0 -0.1299,-0.259 l -9.0599,-11.335 c 0.5498,-0.881 1.0099,-1.823 1.3798,-2.789 l 18.6301,3.387 11.7196,11.724 a 0.746495,0.746495 0 0 0 1.06,-1.051 L 96.8325,265.616 a 0.743145,0.743145 0 0 0 -0.39,-0.207 l -18.6503,-3.388 c 0,-0.153 0.1001,-0.306 0.1403,-0.459 0.1598,-0.624 0.2598,-1.268 0.29,-1.92 l 20.3399,-2.261 18.9096,4.721 a 0.743145,0.743145 0 1 0 0.36,-1.44 l -19.0297,-4.757 a 0.743145,0.743145 0 0 0 -0.1899,-0.02 v 0 a 0.743145,0.743145 0 0 0 -0.1101,0 l -20.35,2.263 c -0.1,-1.111 -0.2899,-2.213 -0.5598,-3.243 a 0.743576,0.743576 0 0 0 0,-0.01 l 19.0299,-11.891 a 0.743145,0.743145 0 0 0 0.2501,-0.267 l 11.8895,-21.4 a 0.743145,0.743145 0 0 0 -0.63,-1.114 v -0.01 a 0.743145,0.743145 0 0 0 -0.67,0.389 l -11.7995,21.232 -18.5402,11.592 c -0.39,-1.166 -0.8099,-2.175 -1.13,-2.895 6.4101,-3.196 11.38,-10.428 11.38,-22.431 0,-8.575 -4.88,-15.274 -9.71,-19.803 -2.4199,-2.265 -4.8199,-3.994 -6.6299,-5.162 -0.9001,-0.584 -1.66,-1.028 -2.19,-1.326 -0.1701,-0.1 -0.2799,-0.153 -0.4,-0.219 v -37.689 a 0.743145,0.743145 0 0 0 -0.7501,-0.753 z"/></g></svg>